<svg width="200.8375244140625px" height="75.207470703125px" xmlns="http://www.w3.org/2000/svg" viewBox="149.58123779296875 37.3962646484375 200.8375244140625 75.207470703125" style="background: rgba(0, 0, 0, 0);" preserveAspectRatio="xMidYMid"><defs><filter id="editing-extrude-glow"><feFlood flood-color="rgba(0%,0%,0%,0)" result="flood-1"></feFlood><feMorphology operator="erode" radius="1" in="SourceAlpha" result="erode"></feMorphology><feComposite operator="in" in="flood-1" in2="erode" result="comp1"></feComposite><feConvolveMatrix order="1,1" divisor="1" in="comp1" result="convolve" kernelMatrix="1"></feConvolveMatrix><feOffset dx="-1" dy="0" in="convolve" result="extrude"></feOffset><feComposite operator="in" in="flood-1" in2="extrude" result="comp-extrude"></feComposite><feFlood flood-color="rgba(0%,0%,0%,0)" result="flood-2"></feFlood><feComposite operator="in" in="flood-2" in2="SourceAlpha" result="comp2"></feComposite><feMorphology operator="dilate" radius="1" in="comp2" result="dilate"></feMorphology><feOffset dx="-1.5" dy="0" in="dilate" result="offset"></feOffset><feGaussianBlur in="offset" stdDeviation="5.8" result="blur"></feGaussianBlur><feComponentTransfer in="blur" result="shadow"><feFuncA type="linear" slope="0.8" intercept="-0.2"></feFuncA></feComponentTransfer><feMerge><feMergeNode in="shadow"></feMergeNode><feMergeNode in="comp-extrude"></feMergeNode><feMergeNode in="SourceGraphic"></feMergeNode></feMerge></filter></defs><g filter="url(#editing-extrude-glow)"><g transform="translate(182.83499932289124, 87.34000015258789)"><path d="M2.43-0.83L2.43-0.83L2.43-22.59L2.43-22.59Q2.43-22.98 2.72-23.18L2.72-23.18L2.72-23.18Q3.01-23.39 3.39-23.39L3.39-23.39L14.78-23.39L14.78-23.39Q15.58-23.39 15.58-22.46L15.58-22.46L15.58-22.46Q15.58-22.05 15.38-21.74L15.38-21.74L15.38-21.74Q15.17-21.44 14.78-21.44L14.78-21.44L4.54-21.44L4.54-12.64L9.57-12.64L9.57-12.64Q9.95-12.64 10.16-12.37L10.16-12.37L10.16-12.37Q10.37-12.10 10.37-11.68L10.37-11.68L10.37-11.68Q10.37-10.82 9.57-10.82L9.57-10.82L4.54-10.82L4.54-1.95L14.78-1.95L14.78-1.95Q15.14-1.95 15.36-1.66L15.36-1.66L15.36-1.66Q15.58-1.38 15.58-0.96L15.58-0.96L15.58-0.96Q15.58 0 14.78 0L14.78 0L3.39 0L3.39 0Q3.01 0 2.72-0.22L2.72-0.22L2.72-0.22Q2.43-0.45 2.43-0.83ZM18.53-0.83L18.53-0.83L18.53-23.65L18.53-23.65Q18.53-23.97 18.82-24.19L18.82-24.19L18.82-24.19Q19.10-24.42 19.55-24.42L19.55-24.42L19.55-24.42Q20-24.42 20.30-24.19L20.30-24.19L20.30-24.19Q20.61-23.97 20.61-23.65L20.61-23.65L20.61-0.83L20.61-0.83Q20.61-0.51 20.30-0.26L20.30-0.26L20.30-0.26Q20 0 19.55 0L19.55 0L19.55 0Q19.14 0 18.83-0.26L18.83-0.26L18.83-0.26Q18.53-0.51 18.53-0.83ZM25.15-0.83L25.15-0.83L25.15-23.65L25.15-23.65Q25.15-23.97 25.44-24.19L25.44-24.19L25.44-24.19Q25.73-24.42 26.18-24.42L26.18-24.42L26.18-24.42Q26.62-24.42 26.93-24.19L26.93-24.19L26.93-24.19Q27.23-23.97 27.23-23.65L27.23-23.65L27.23-0.83L27.23-0.83Q27.23-0.51 26.93-0.26L26.93-0.26L26.93-0.26Q26.62 0 26.18 0L26.18 0L26.18 0Q25.76 0 25.46-0.26L25.46-0.26L25.46-0.26Q25.15-0.51 25.15-0.83ZM31.52-20.02L31.52-20.02L31.52-20.02Q31.10-20.42 31.10-20.96L31.10-20.96L31.10-20.96Q31.10-21.50 31.52-21.89L31.52-21.89L31.52-21.89Q31.94-22.27 32.54-22.27L32.54-22.27L32.54-22.27Q33.12-22.27 33.52-21.89L33.52-21.89L33.52-21.89Q33.92-21.50 33.92-20.96L33.92-20.96L33.92-20.96Q33.92-20.42 33.52-20.02L33.52-20.02L33.52-20.02Q33.12-19.62 32.54-19.62L32.54-19.62L32.54-19.62Q31.94-19.62 31.52-20.02ZM31.52-0.83L31.52-0.83L31.52-14.37L31.52-14.37Q31.52-14.69 31.81-14.91L31.81-14.91L31.81-14.91Q32.10-15.14 32.54-15.14L32.54-15.14L32.54-15.14Q32.99-15.14 33.30-14.91L33.30-14.91L33.30-14.91Q33.60-14.69 33.60-14.37L33.60-14.37L33.60-0.83L33.60-0.83Q33.60-0.51 33.28-0.26L33.28-0.26L33.28-0.26Q32.96 0 32.54 0L32.54 0L32.54 0Q32.13 0 31.82-0.26L31.82-0.26L31.82-0.26Q31.52-0.51 31.52-0.83ZM37.02-5.86L37.02-5.86L37.02-9.34L37.02-9.34Q37.02-11.78 38.82-13.55L38.82-13.55L38.82-13.55Q40.61-15.33 43.07-15.33L43.07-15.33L43.07-15.33Q45.54-15.33 47.36-13.57L47.36-13.57L47.36-13.57Q49.18-11.81 49.18-9.34L49.18-9.34L49.18-5.86L49.18-5.86Q49.18-3.46 47.34-1.62L47.34-1.62L47.34-1.62Q45.50 0.22 43.07 0.22L43.07 0.22L43.07 0.22Q40.67 0.22 38.85-1.62L38.85-1.62L38.85-1.62Q37.02-3.46 37.02-5.86ZM39.10-9.34L39.10-5.86L39.10-5.86Q39.10-4.22 40.27-2.96L40.27-2.96L40.27-2.96Q41.44-1.70 43.07-1.70L43.07-1.70L43.07-1.70Q44.74-1.70 45.92-2.96L45.92-2.96L45.92-2.96Q47.10-4.22 47.10-5.86L47.10-5.86L47.10-9.34L47.10-9.34Q47.10-10.91 45.90-12.16L45.90-12.16L45.90-12.16Q44.70-13.41 43.07-13.41L43.07-13.41L43.07-13.41Q41.44-13.41 40.27-12.16L40.27-12.16L40.27-12.16Q39.10-10.91 39.10-9.34L39.10-9.34ZM52.54-4.70L52.54-4.70L52.54-21.57L52.54-21.57Q52.54-21.89 52.86-22.11L52.86-22.11L52.86-22.11Q53.18-22.34 53.57-22.34L53.57-22.34L53.57-22.34Q53.98-22.34 54.30-22.11L54.30-22.11L54.30-22.11Q54.62-21.89 54.62-21.57L54.62-21.57L54.62-15.14L58.75-15.14L58.75-15.14Q59.07-15.14 59.28-14.88L59.28-14.88L59.28-14.88Q59.49-14.62 59.49-14.27L59.49-14.27L59.49-14.27Q59.49-13.92 59.28-13.66L59.28-13.66L59.28-13.66Q59.07-13.41 58.75-13.41L58.75-13.41L54.62-13.41L54.62-4.70L54.62-4.70Q54.62-3.14 55.28-2.51L55.28-2.51L55.28-2.51Q55.94-1.89 57.60-1.89L57.60-1.89L58.50-1.89L58.50-1.89Q58.91-1.89 59.18-1.62L59.18-1.62L59.18-1.62Q59.46-1.34 59.46-0.96L59.46-0.96L59.46-0.96Q59.46-0.58 59.18-0.29L59.18-0.29L59.18-0.29Q58.91 0 58.50 0L58.50 0L57.60 0L57.60 0Q52.54 0 52.54-4.70ZM68.93-0.83L68.93-0.83L68.93-22.59L68.93-22.59Q68.93-23.39 69.98-23.39L69.98-23.39L69.98-23.39Q70.88-23.39 71.65-21.92L71.65-21.92L80.29-4.90L80.29-22.62L80.29-22.62Q80.29-23.39 81.34-23.39L81.34-23.39L81.34-23.39Q82.40-23.39 82.40-22.62L82.40-22.62L82.40-0.83L82.40-0.83Q82.40-0.45 82.08-0.22L82.08-0.22L82.08-0.22Q81.76 0 81.34 0L81.34 0L81.34 0Q80.54 0 79.94-1.22L79.94-1.22L71.04-18.53L71.04-0.83L71.04-0.83Q71.04-0.45 70.72-0.22L70.72-0.22L70.72-0.22Q70.40 0 69.98 0L69.98 0L69.98 0Q69.54 0 69.23-0.22L69.23-0.22L69.23-0.22Q68.93-0.45 68.93-0.83ZM86.11-5.86L86.11-5.86L86.11-9.44L86.11-9.44Q86.11-11.84 87.90-13.58L87.90-13.58L87.90-13.58Q89.70-15.33 92.22-15.33L92.22-15.33L92.22-15.33Q94.66-15.33 96.43-13.66L96.43-13.66L96.43-13.66Q98.21-12 98.21-9.50L98.21-9.50L98.21-9.50Q98.21-8.61 98.00-8.06L98.00-8.06L98.00-8.06Q97.79-7.52 97.33-7.30L97.33-7.30L97.33-7.30Q96.86-7.07 96.48-7.01L96.48-7.01L96.48-7.01Q96.10-6.94 95.42-6.94L95.42-6.94L88.19-6.94L88.19-5.76L88.19-5.76Q88.19-3.87 89.55-2.74L89.55-2.74L89.55-2.74Q90.91-1.60 93.06-1.60L93.06-1.60L93.06-1.60Q94.14-1.60 94.96-1.92L94.96-1.92L94.96-1.92Q95.78-2.24 96.21-2.56L96.21-2.56L96.21-2.56Q96.64-2.88 96.90-2.88L96.90-2.88L96.90-2.88Q97.25-2.88 97.52-2.54L97.52-2.54L97.52-2.54Q97.79-2.21 97.79-1.89L97.79-1.89L97.79-1.89Q97.79-1.22 96.42-0.50L96.42-0.50L96.42-0.50Q95.04 0.22 92.99 0.22L92.99 0.22L92.99 0.22Q89.95 0.22 88.03-1.46L88.03-1.46L88.03-1.46Q86.11-3.14 86.11-5.86ZM88.19-9.70L88.19-8.48L94.59-8.48L94.59-8.48Q95.55-8.48 95.87-8.69L95.87-8.69L95.87-8.69Q96.19-8.90 96.19-9.57L96.19-9.57L96.19-9.57Q96.19-11.17 95.06-12.38L95.06-12.38L95.06-12.38Q93.92-13.60 92.19-13.60L92.19-13.60L92.19-13.60Q90.53-13.60 89.36-12.45L89.36-12.45L89.36-12.45Q88.19-11.30 88.19-9.70L88.19-9.70ZM99.81-14.27L99.81-14.27L99.81-14.27Q99.81-14.66 100.21-14.93L100.21-14.93L100.21-14.93Q100.61-15.20 101.06-15.20L101.06-15.20L101.06-15.20Q101.63-15.20 101.79-14.72L101.79-14.72L105.89-3.33L109.18-13.73L109.18-13.73Q109.34-14.27 110.02-14.27L110.02-14.27L110.02-14.27Q110.69-14.27 110.85-13.73L110.85-13.73L114.02-3.20L118.21-14.72L118.21-14.72Q118.30-15.20 118.91-15.20L118.91-15.20L118.91-15.20Q119.36-15.20 119.76-14.94L119.76-14.94L119.76-14.94Q120.16-14.69 120.16-14.27L120.16-14.27L120.16-14.27Q120.16-13.98 120.03-13.79L120.03-13.79L115.04-0.26L115.04-0.26Q114.88 0.26 114.21 0.26L114.21 0.26L114.21 0.26Q113.60 0.26 113.34-0.22L113.34-0.22L110.02-10.62L106.72-0.38L106.72-0.38Q106.53 0.26 105.79 0.26L105.79 0.26L105.79 0.26Q105.12 0.26 104.93-0.38L104.93-0.38L99.94-13.79L99.94-13.79Q99.81-14.05 99.81-14.27ZM121.73-2.08L121.73-2.08L121.73-2.08Q121.73-2.40 121.95-2.72L121.95-2.72L121.95-2.72Q122.18-3.04 122.46-3.04L122.46-3.04L122.46-3.04Q122.69-3.04 123.17-2.67L123.17-2.67L123.17-2.67Q123.65-2.30 124.54-1.92L124.54-1.92L124.54-1.92Q125.44-1.54 126.69-1.54L126.69-1.54L126.69-1.54Q128.38-1.54 129.18-2.18L129.18-2.18L129.18-2.18Q129.98-2.82 129.98-3.81L129.98-3.81L129.98-3.81Q129.98-4.96 129.17-5.65L129.17-5.65L129.17-5.65Q128.35-6.34 127.20-6.66L127.20-6.66L127.20-6.66Q126.05-6.98 124.88-7.36L124.88-7.36L124.88-7.36Q123.71-7.74 122.90-8.62L122.90-8.62L122.90-8.62Q122.08-9.50 122.08-10.98L122.08-10.98L122.08-10.98Q122.08-12.74 123.34-14.03L123.34-14.03L123.34-14.03Q124.61-15.33 127.14-15.33L127.14-15.33L127.14-15.33Q128.70-15.33 130.06-14.83L130.06-14.83L130.06-14.83Q131.42-14.34 131.42-13.76L131.42-13.76L131.42-13.76Q131.42-13.44 131.17-13.06L131.17-13.06L131.17-13.06Q130.91-12.67 130.56-12.67L130.56-12.67L130.56-12.67Q130.46-12.67 129.38-13.12L129.38-13.12L129.38-13.12Q128.29-13.57 127.17-13.57L127.17-13.57L127.17-13.57Q125.57-13.57 124.77-12.80L124.77-12.80L124.77-12.80Q123.97-12.03 123.97-11.07L123.97-11.07L123.97-11.07Q123.97-10.08 124.78-9.50L124.78-9.50L124.78-9.50Q125.60-8.93 126.77-8.62L126.77-8.62L126.77-8.62Q127.94-8.32 129.10-7.92L129.10-7.92L129.10-7.92Q130.27-7.52 131.09-6.51L131.09-6.51L131.09-6.51Q131.90-5.50 131.90-3.90L131.90-3.90L131.90-3.90Q131.90-1.98 130.54-0.88L130.54-0.88L130.54-0.88Q129.18 0.22 126.75 0.22L126.75 0.22L126.75 0.22Q124.64 0.22 123.18-0.53L123.18-0.53L123.18-0.53Q121.73-1.28 121.73-2.08Z" fill="#18244a"></path></g></g><style>text {
  font-size: 64px;
  font-family: Arial Black;
  dominant-baseline: central;
  text-anchor: middle;
}</style></svg>